<mxfile host="Electron" modified="2023-06-07T19:01:55.366Z" agent="Mozilla/5.0 (Windows NT 10.0; Win64; x64) AppleWebKit/537.36 (KHTML, like Gecko) draw.io/21.2.8 Chrome/112.0.5615.165 Electron/24.2.0 Safari/537.36" version="21.2.8" etag="TT3AdxxjZeHvE5pBQJv2" type="device">
  <diagram id="ml6bLnvB0Ukf37C0x4b_" name="Page-1">
    <mxGraphModel dx="1434" dy="844" grid="1" gridSize="10" guides="1" tooltips="1" connect="1" arrows="1" fold="1" page="1" pageScale="1" pageWidth="850" pageHeight="1100" math="0" shadow="0">
      <root>
        <mxCell id="0" />
        <mxCell id="1" parent="0" />
        <mxCell id="bDXIlXWXYHLKzXI-y4y_-1" value="Suppliers" style="html=1;dashed=0;whiteSpace=wrap;" vertex="1" parent="1">
          <mxGeometry x="350" y="120" width="100" height="50" as="geometry" />
        </mxCell>
        <mxCell id="bDXIlXWXYHLKzXI-y4y_-2" value="Products" style="html=1;dashed=0;whiteSpace=wrap;" vertex="1" parent="1">
          <mxGeometry x="350" y="320" width="100" height="50" as="geometry" />
        </mxCell>
        <mxCell id="bDXIlXWXYHLKzXI-y4y_-5" value="&lt;u&gt;&lt;b&gt;Supplier_ID&lt;/b&gt;&lt;/u&gt;" style="ellipse;whiteSpace=wrap;html=1;" vertex="1" parent="1">
          <mxGeometry x="210" y="30" width="100" height="50" as="geometry" />
        </mxCell>
        <mxCell id="bDXIlXWXYHLKzXI-y4y_-6" value="Company_name" style="ellipse;whiteSpace=wrap;html=1;" vertex="1" parent="1">
          <mxGeometry x="320" y="20" width="100" height="50" as="geometry" />
        </mxCell>
        <mxCell id="bDXIlXWXYHLKzXI-y4y_-7" value="Address" style="ellipse;whiteSpace=wrap;html=1;" vertex="1" parent="1">
          <mxGeometry x="430" y="20" width="100" height="50" as="geometry" />
        </mxCell>
        <mxCell id="bDXIlXWXYHLKzXI-y4y_-8" value="Phone" style="ellipse;whiteSpace=wrap;html=1;" vertex="1" parent="1">
          <mxGeometry x="530" y="50" width="100" height="50" as="geometry" />
        </mxCell>
        <mxCell id="bDXIlXWXYHLKzXI-y4y_-9" value="&lt;b&gt;&lt;u&gt;Product_ID&lt;/u&gt;&lt;/b&gt;" style="ellipse;whiteSpace=wrap;html=1;" vertex="1" parent="1">
          <mxGeometry x="130" y="320" width="100" height="50" as="geometry" />
        </mxCell>
        <mxCell id="bDXIlXWXYHLKzXI-y4y_-10" value="Product_name" style="ellipse;whiteSpace=wrap;html=1;" vertex="1" parent="1">
          <mxGeometry x="250" y="440" width="100" height="50" as="geometry" />
        </mxCell>
        <mxCell id="bDXIlXWXYHLKzXI-y4y_-11" value="Description" style="ellipse;whiteSpace=wrap;html=1;" vertex="1" parent="1">
          <mxGeometry x="375" y="445" width="100" height="50" as="geometry" />
        </mxCell>
        <mxCell id="bDXIlXWXYHLKzXI-y4y_-12" value="Unit" style="ellipse;whiteSpace=wrap;html=1;" vertex="1" parent="1">
          <mxGeometry x="490" y="440" width="100" height="50" as="geometry" />
        </mxCell>
        <mxCell id="bDXIlXWXYHLKzXI-y4y_-13" value="UnitPrice" style="ellipse;whiteSpace=wrap;html=1;" vertex="1" parent="1">
          <mxGeometry x="580" y="390" width="100" height="50" as="geometry" />
        </mxCell>
        <mxCell id="bDXIlXWXYHLKzXI-y4y_-14" value="Quantity" style="ellipse;whiteSpace=wrap;html=1;" vertex="1" parent="1">
          <mxGeometry x="600" y="320" width="100" height="50" as="geometry" />
        </mxCell>
        <mxCell id="bDXIlXWXYHLKzXI-y4y_-15" value="Supplier_ID*" style="ellipse;whiteSpace=wrap;html=1;" vertex="1" parent="1">
          <mxGeometry x="170" y="390" width="100" height="50" as="geometry" />
        </mxCell>
        <mxCell id="bDXIlXWXYHLKzXI-y4y_-16" value="" style="endArrow=none;html=1;rounded=0;exitX=0.5;exitY=1;exitDx=0;exitDy=0;entryX=0;entryY=0;entryDx=0;entryDy=0;" edge="1" parent="1" source="bDXIlXWXYHLKzXI-y4y_-5" target="bDXIlXWXYHLKzXI-y4y_-1">
          <mxGeometry width="50" height="50" relative="1" as="geometry">
            <mxPoint x="600" y="360" as="sourcePoint" />
            <mxPoint x="650" y="310" as="targetPoint" />
          </mxGeometry>
        </mxCell>
        <mxCell id="bDXIlXWXYHLKzXI-y4y_-17" value="" style="endArrow=none;html=1;rounded=0;exitX=0.5;exitY=1;exitDx=0;exitDy=0;entryX=0.36;entryY=0.04;entryDx=0;entryDy=0;entryPerimeter=0;" edge="1" parent="1" source="bDXIlXWXYHLKzXI-y4y_-6" target="bDXIlXWXYHLKzXI-y4y_-1">
          <mxGeometry width="50" height="50" relative="1" as="geometry">
            <mxPoint x="270" y="110" as="sourcePoint" />
            <mxPoint x="360" y="130" as="targetPoint" />
          </mxGeometry>
        </mxCell>
        <mxCell id="bDXIlXWXYHLKzXI-y4y_-18" value="" style="endArrow=none;html=1;rounded=0;exitX=0.5;exitY=1;exitDx=0;exitDy=0;entryX=0.75;entryY=0;entryDx=0;entryDy=0;" edge="1" parent="1" source="bDXIlXWXYHLKzXI-y4y_-7" target="bDXIlXWXYHLKzXI-y4y_-1">
          <mxGeometry width="50" height="50" relative="1" as="geometry">
            <mxPoint x="260" y="170" as="sourcePoint" />
            <mxPoint x="350" y="190" as="targetPoint" />
          </mxGeometry>
        </mxCell>
        <mxCell id="bDXIlXWXYHLKzXI-y4y_-19" value="" style="endArrow=none;html=1;rounded=0;exitX=0.5;exitY=1;exitDx=0;exitDy=0;entryX=1;entryY=0;entryDx=0;entryDy=0;" edge="1" parent="1" source="bDXIlXWXYHLKzXI-y4y_-8" target="bDXIlXWXYHLKzXI-y4y_-1">
          <mxGeometry width="50" height="50" relative="1" as="geometry">
            <mxPoint x="260" y="200" as="sourcePoint" />
            <mxPoint x="350" y="220" as="targetPoint" />
          </mxGeometry>
        </mxCell>
        <mxCell id="bDXIlXWXYHLKzXI-y4y_-20" value="Have" style="rhombus;whiteSpace=wrap;html=1;" vertex="1" parent="1">
          <mxGeometry x="360" y="200" width="80" height="70" as="geometry" />
        </mxCell>
        <mxCell id="bDXIlXWXYHLKzXI-y4y_-21" value="" style="endArrow=none;html=1;rounded=0;entryX=0.5;entryY=1;entryDx=0;entryDy=0;" edge="1" parent="1" source="bDXIlXWXYHLKzXI-y4y_-20" target="bDXIlXWXYHLKzXI-y4y_-1">
          <mxGeometry width="50" height="50" relative="1" as="geometry">
            <mxPoint x="600" y="360" as="sourcePoint" />
            <mxPoint x="650" y="310" as="targetPoint" />
          </mxGeometry>
        </mxCell>
        <mxCell id="bDXIlXWXYHLKzXI-y4y_-22" value="" style="endArrow=none;html=1;rounded=0;entryX=0.5;entryY=1;entryDx=0;entryDy=0;exitX=0.5;exitY=0;exitDx=0;exitDy=0;" edge="1" parent="1" source="bDXIlXWXYHLKzXI-y4y_-2" target="bDXIlXWXYHLKzXI-y4y_-20">
          <mxGeometry width="50" height="50" relative="1" as="geometry">
            <mxPoint x="410" y="230" as="sourcePoint" />
            <mxPoint x="410" y="180" as="targetPoint" />
          </mxGeometry>
        </mxCell>
        <mxCell id="bDXIlXWXYHLKzXI-y4y_-33" value="" style="endArrow=none;html=1;rounded=0;exitX=1;exitY=0.5;exitDx=0;exitDy=0;entryX=0;entryY=0.5;entryDx=0;entryDy=0;" edge="1" parent="1" source="bDXIlXWXYHLKzXI-y4y_-2" target="bDXIlXWXYHLKzXI-y4y_-14">
          <mxGeometry width="50" height="50" relative="1" as="geometry">
            <mxPoint x="510" y="330" as="sourcePoint" />
            <mxPoint x="560" y="280" as="targetPoint" />
          </mxGeometry>
        </mxCell>
        <mxCell id="bDXIlXWXYHLKzXI-y4y_-34" value="" style="endArrow=none;html=1;rounded=0;exitX=1;exitY=1;exitDx=0;exitDy=0;entryX=0;entryY=0.5;entryDx=0;entryDy=0;" edge="1" parent="1" source="bDXIlXWXYHLKzXI-y4y_-2" target="bDXIlXWXYHLKzXI-y4y_-13">
          <mxGeometry width="50" height="50" relative="1" as="geometry">
            <mxPoint x="510" y="330" as="sourcePoint" />
            <mxPoint x="560" y="280" as="targetPoint" />
          </mxGeometry>
        </mxCell>
        <mxCell id="bDXIlXWXYHLKzXI-y4y_-35" value="" style="endArrow=none;html=1;rounded=0;entryX=0.75;entryY=1;entryDx=0;entryDy=0;exitX=0.5;exitY=0;exitDx=0;exitDy=0;" edge="1" parent="1" source="bDXIlXWXYHLKzXI-y4y_-12" target="bDXIlXWXYHLKzXI-y4y_-2">
          <mxGeometry width="50" height="50" relative="1" as="geometry">
            <mxPoint x="510" y="330" as="sourcePoint" />
            <mxPoint x="560" y="280" as="targetPoint" />
          </mxGeometry>
        </mxCell>
        <mxCell id="bDXIlXWXYHLKzXI-y4y_-36" value="" style="endArrow=none;html=1;rounded=0;exitX=0.5;exitY=0;exitDx=0;exitDy=0;entryX=0.5;entryY=1;entryDx=0;entryDy=0;" edge="1" parent="1" source="bDXIlXWXYHLKzXI-y4y_-11" target="bDXIlXWXYHLKzXI-y4y_-2">
          <mxGeometry width="50" height="50" relative="1" as="geometry">
            <mxPoint x="510" y="330" as="sourcePoint" />
            <mxPoint x="560" y="280" as="targetPoint" />
          </mxGeometry>
        </mxCell>
        <mxCell id="bDXIlXWXYHLKzXI-y4y_-37" value="" style="endArrow=none;html=1;rounded=0;exitX=0.5;exitY=0;exitDx=0;exitDy=0;entryX=0.25;entryY=1;entryDx=0;entryDy=0;" edge="1" parent="1" source="bDXIlXWXYHLKzXI-y4y_-10" target="bDXIlXWXYHLKzXI-y4y_-2">
          <mxGeometry width="50" height="50" relative="1" as="geometry">
            <mxPoint x="510" y="330" as="sourcePoint" />
            <mxPoint x="560" y="280" as="targetPoint" />
          </mxGeometry>
        </mxCell>
        <mxCell id="bDXIlXWXYHLKzXI-y4y_-38" value="" style="endArrow=none;html=1;rounded=0;exitX=1;exitY=0;exitDx=0;exitDy=0;entryX=0;entryY=1;entryDx=0;entryDy=0;" edge="1" parent="1" source="bDXIlXWXYHLKzXI-y4y_-15" target="bDXIlXWXYHLKzXI-y4y_-2">
          <mxGeometry width="50" height="50" relative="1" as="geometry">
            <mxPoint x="510" y="330" as="sourcePoint" />
            <mxPoint x="560" y="280" as="targetPoint" />
          </mxGeometry>
        </mxCell>
        <mxCell id="bDXIlXWXYHLKzXI-y4y_-39" value="" style="endArrow=none;html=1;rounded=0;exitX=0;exitY=0.5;exitDx=0;exitDy=0;entryX=1;entryY=0.5;entryDx=0;entryDy=0;" edge="1" parent="1" source="bDXIlXWXYHLKzXI-y4y_-2" target="bDXIlXWXYHLKzXI-y4y_-9">
          <mxGeometry width="50" height="50" relative="1" as="geometry">
            <mxPoint x="510" y="330" as="sourcePoint" />
            <mxPoint x="560" y="280" as="targetPoint" />
          </mxGeometry>
        </mxCell>
        <mxCell id="bDXIlXWXYHLKzXI-y4y_-40" value="&lt;b&gt;&lt;font style=&quot;font-size: 14px;&quot;&gt;Suppliers&lt;/font&gt;&lt;/b&gt;" style="text;html=1;align=center;verticalAlign=middle;resizable=0;points=[];autosize=1;strokeColor=none;fillColor=none;" vertex="1" parent="1">
          <mxGeometry x="30" y="530" width="90" height="30" as="geometry" />
        </mxCell>
        <mxCell id="bDXIlXWXYHLKzXI-y4y_-41" value="" style="shape=table;startSize=0;container=1;collapsible=0;childLayout=tableLayout;" vertex="1" parent="1">
          <mxGeometry x="40" y="560" width="790" height="220" as="geometry" />
        </mxCell>
        <mxCell id="bDXIlXWXYHLKzXI-y4y_-42" value="" style="shape=tableRow;horizontal=0;startSize=0;swimlaneHead=0;swimlaneBody=0;strokeColor=inherit;top=0;left=0;bottom=0;right=0;collapsible=0;dropTarget=0;fillColor=none;points=[[0,0.5],[1,0.5]];portConstraint=eastwest;" vertex="1" parent="bDXIlXWXYHLKzXI-y4y_-41">
          <mxGeometry width="790" height="32" as="geometry" />
        </mxCell>
        <mxCell id="bDXIlXWXYHLKzXI-y4y_-43" value="Column Name" style="shape=partialRectangle;html=1;whiteSpace=wrap;connectable=0;strokeColor=inherit;overflow=hidden;fillColor=none;top=0;left=0;bottom=0;right=0;pointerEvents=1;fontStyle=1" vertex="1" parent="bDXIlXWXYHLKzXI-y4y_-42">
          <mxGeometry width="158" height="32" as="geometry">
            <mxRectangle width="158" height="32" as="alternateBounds" />
          </mxGeometry>
        </mxCell>
        <mxCell id="bDXIlXWXYHLKzXI-y4y_-44" value="&lt;u style=&quot;border-color: var(--border-color);&quot;&gt;&lt;span style=&quot;border-color: var(--border-color);&quot;&gt;Supplier_ID&lt;/span&gt;&lt;/u&gt;" style="shape=partialRectangle;html=1;whiteSpace=wrap;connectable=0;strokeColor=inherit;overflow=hidden;fillColor=none;top=0;left=0;bottom=0;right=0;pointerEvents=1;" vertex="1" parent="bDXIlXWXYHLKzXI-y4y_-42">
          <mxGeometry x="158" width="158" height="32" as="geometry">
            <mxRectangle width="158" height="32" as="alternateBounds" />
          </mxGeometry>
        </mxCell>
        <mxCell id="bDXIlXWXYHLKzXI-y4y_-45" value="Company_name" style="shape=partialRectangle;html=1;whiteSpace=wrap;connectable=0;strokeColor=inherit;overflow=hidden;fillColor=none;top=0;left=0;bottom=0;right=0;pointerEvents=1;" vertex="1" parent="bDXIlXWXYHLKzXI-y4y_-42">
          <mxGeometry x="316" width="158" height="32" as="geometry">
            <mxRectangle width="158" height="32" as="alternateBounds" />
          </mxGeometry>
        </mxCell>
        <mxCell id="bDXIlXWXYHLKzXI-y4y_-46" value="Address" style="shape=partialRectangle;html=1;whiteSpace=wrap;connectable=0;strokeColor=inherit;overflow=hidden;fillColor=none;top=0;left=0;bottom=0;right=0;pointerEvents=1;" vertex="1" parent="bDXIlXWXYHLKzXI-y4y_-42">
          <mxGeometry x="474" width="162" height="32" as="geometry">
            <mxRectangle width="162" height="32" as="alternateBounds" />
          </mxGeometry>
        </mxCell>
        <mxCell id="bDXIlXWXYHLKzXI-y4y_-47" value="Phone" style="shape=partialRectangle;html=1;whiteSpace=wrap;connectable=0;strokeColor=inherit;overflow=hidden;fillColor=none;top=0;left=0;bottom=0;right=0;pointerEvents=1;" vertex="1" parent="bDXIlXWXYHLKzXI-y4y_-42">
          <mxGeometry x="636" width="154" height="32" as="geometry">
            <mxRectangle width="154" height="32" as="alternateBounds" />
          </mxGeometry>
        </mxCell>
        <mxCell id="bDXIlXWXYHLKzXI-y4y_-48" value="" style="shape=tableRow;horizontal=0;startSize=0;swimlaneHead=0;swimlaneBody=0;strokeColor=inherit;top=0;left=0;bottom=0;right=0;collapsible=0;dropTarget=0;fillColor=none;points=[[0,0.5],[1,0.5]];portConstraint=eastwest;" vertex="1" parent="bDXIlXWXYHLKzXI-y4y_-41">
          <mxGeometry y="32" width="790" height="31" as="geometry" />
        </mxCell>
        <mxCell id="bDXIlXWXYHLKzXI-y4y_-49" value="Key Type" style="shape=partialRectangle;html=1;whiteSpace=wrap;connectable=0;strokeColor=inherit;overflow=hidden;fillColor=none;top=0;left=0;bottom=0;right=0;pointerEvents=1;fontStyle=1" vertex="1" parent="bDXIlXWXYHLKzXI-y4y_-48">
          <mxGeometry width="158" height="31" as="geometry">
            <mxRectangle width="158" height="31" as="alternateBounds" />
          </mxGeometry>
        </mxCell>
        <mxCell id="bDXIlXWXYHLKzXI-y4y_-50" value="PK" style="shape=partialRectangle;html=1;whiteSpace=wrap;connectable=0;strokeColor=inherit;overflow=hidden;fillColor=none;top=0;left=0;bottom=0;right=0;pointerEvents=1;" vertex="1" parent="bDXIlXWXYHLKzXI-y4y_-48">
          <mxGeometry x="158" width="158" height="31" as="geometry">
            <mxRectangle width="158" height="31" as="alternateBounds" />
          </mxGeometry>
        </mxCell>
        <mxCell id="bDXIlXWXYHLKzXI-y4y_-51" value="" style="shape=partialRectangle;html=1;whiteSpace=wrap;connectable=0;strokeColor=inherit;overflow=hidden;fillColor=none;top=0;left=0;bottom=0;right=0;pointerEvents=1;" vertex="1" parent="bDXIlXWXYHLKzXI-y4y_-48">
          <mxGeometry x="316" width="158" height="31" as="geometry">
            <mxRectangle width="158" height="31" as="alternateBounds" />
          </mxGeometry>
        </mxCell>
        <mxCell id="bDXIlXWXYHLKzXI-y4y_-52" value="" style="shape=partialRectangle;html=1;whiteSpace=wrap;connectable=0;strokeColor=inherit;overflow=hidden;fillColor=none;top=0;left=0;bottom=0;right=0;pointerEvents=1;" vertex="1" parent="bDXIlXWXYHLKzXI-y4y_-48">
          <mxGeometry x="474" width="162" height="31" as="geometry">
            <mxRectangle width="162" height="31" as="alternateBounds" />
          </mxGeometry>
        </mxCell>
        <mxCell id="bDXIlXWXYHLKzXI-y4y_-53" value="" style="shape=partialRectangle;html=1;whiteSpace=wrap;connectable=0;strokeColor=inherit;overflow=hidden;fillColor=none;top=0;left=0;bottom=0;right=0;pointerEvents=1;" vertex="1" parent="bDXIlXWXYHLKzXI-y4y_-48">
          <mxGeometry x="636" width="154" height="31" as="geometry">
            <mxRectangle width="154" height="31" as="alternateBounds" />
          </mxGeometry>
        </mxCell>
        <mxCell id="bDXIlXWXYHLKzXI-y4y_-54" value="" style="shape=tableRow;horizontal=0;startSize=0;swimlaneHead=0;swimlaneBody=0;strokeColor=inherit;top=0;left=0;bottom=0;right=0;collapsible=0;dropTarget=0;fillColor=none;points=[[0,0.5],[1,0.5]];portConstraint=eastwest;" vertex="1" parent="bDXIlXWXYHLKzXI-y4y_-41">
          <mxGeometry y="63" width="790" height="32" as="geometry" />
        </mxCell>
        <mxCell id="bDXIlXWXYHLKzXI-y4y_-55" value="Null/Unique" style="shape=partialRectangle;html=1;whiteSpace=wrap;connectable=0;strokeColor=inherit;overflow=hidden;fillColor=none;top=0;left=0;bottom=0;right=0;pointerEvents=1;fontStyle=1" vertex="1" parent="bDXIlXWXYHLKzXI-y4y_-54">
          <mxGeometry width="158" height="32" as="geometry">
            <mxRectangle width="158" height="32" as="alternateBounds" />
          </mxGeometry>
        </mxCell>
        <mxCell id="bDXIlXWXYHLKzXI-y4y_-56" value="NN, U" style="shape=partialRectangle;html=1;whiteSpace=wrap;connectable=0;strokeColor=inherit;overflow=hidden;fillColor=none;top=0;left=0;bottom=0;right=0;pointerEvents=1;" vertex="1" parent="bDXIlXWXYHLKzXI-y4y_-54">
          <mxGeometry x="158" width="158" height="32" as="geometry">
            <mxRectangle width="158" height="32" as="alternateBounds" />
          </mxGeometry>
        </mxCell>
        <mxCell id="bDXIlXWXYHLKzXI-y4y_-57" value="NN" style="shape=partialRectangle;html=1;whiteSpace=wrap;connectable=0;strokeColor=inherit;overflow=hidden;fillColor=none;top=0;left=0;bottom=0;right=0;pointerEvents=1;" vertex="1" parent="bDXIlXWXYHLKzXI-y4y_-54">
          <mxGeometry x="316" width="158" height="32" as="geometry">
            <mxRectangle width="158" height="32" as="alternateBounds" />
          </mxGeometry>
        </mxCell>
        <mxCell id="bDXIlXWXYHLKzXI-y4y_-58" value="NN" style="shape=partialRectangle;html=1;whiteSpace=wrap;connectable=0;strokeColor=inherit;overflow=hidden;fillColor=none;top=0;left=0;bottom=0;right=0;pointerEvents=1;" vertex="1" parent="bDXIlXWXYHLKzXI-y4y_-54">
          <mxGeometry x="474" width="162" height="32" as="geometry">
            <mxRectangle width="162" height="32" as="alternateBounds" />
          </mxGeometry>
        </mxCell>
        <mxCell id="bDXIlXWXYHLKzXI-y4y_-59" value="NN" style="shape=partialRectangle;html=1;whiteSpace=wrap;connectable=0;strokeColor=inherit;overflow=hidden;fillColor=none;top=0;left=0;bottom=0;right=0;pointerEvents=1;" vertex="1" parent="bDXIlXWXYHLKzXI-y4y_-54">
          <mxGeometry x="636" width="154" height="32" as="geometry">
            <mxRectangle width="154" height="32" as="alternateBounds" />
          </mxGeometry>
        </mxCell>
        <mxCell id="bDXIlXWXYHLKzXI-y4y_-60" value="" style="shape=tableRow;horizontal=0;startSize=0;swimlaneHead=0;swimlaneBody=0;strokeColor=inherit;top=0;left=0;bottom=0;right=0;collapsible=0;dropTarget=0;fillColor=none;points=[[0,0.5],[1,0.5]];portConstraint=eastwest;" vertex="1" parent="bDXIlXWXYHLKzXI-y4y_-41">
          <mxGeometry y="95" width="790" height="30" as="geometry" />
        </mxCell>
        <mxCell id="bDXIlXWXYHLKzXI-y4y_-61" value="FK Table" style="shape=partialRectangle;html=1;whiteSpace=wrap;connectable=0;strokeColor=inherit;overflow=hidden;fillColor=none;top=0;left=0;bottom=0;right=0;pointerEvents=1;fontStyle=1" vertex="1" parent="bDXIlXWXYHLKzXI-y4y_-60">
          <mxGeometry width="158" height="30" as="geometry">
            <mxRectangle width="158" height="30" as="alternateBounds" />
          </mxGeometry>
        </mxCell>
        <mxCell id="bDXIlXWXYHLKzXI-y4y_-62" value="" style="shape=partialRectangle;html=1;whiteSpace=wrap;connectable=0;strokeColor=inherit;overflow=hidden;fillColor=none;top=0;left=0;bottom=0;right=0;pointerEvents=1;" vertex="1" parent="bDXIlXWXYHLKzXI-y4y_-60">
          <mxGeometry x="158" width="158" height="30" as="geometry">
            <mxRectangle width="158" height="30" as="alternateBounds" />
          </mxGeometry>
        </mxCell>
        <mxCell id="bDXIlXWXYHLKzXI-y4y_-63" value="" style="shape=partialRectangle;html=1;whiteSpace=wrap;connectable=0;strokeColor=inherit;overflow=hidden;fillColor=none;top=0;left=0;bottom=0;right=0;pointerEvents=1;" vertex="1" parent="bDXIlXWXYHLKzXI-y4y_-60">
          <mxGeometry x="316" width="158" height="30" as="geometry">
            <mxRectangle width="158" height="30" as="alternateBounds" />
          </mxGeometry>
        </mxCell>
        <mxCell id="bDXIlXWXYHLKzXI-y4y_-64" value="" style="shape=partialRectangle;html=1;whiteSpace=wrap;connectable=0;strokeColor=inherit;overflow=hidden;fillColor=none;top=0;left=0;bottom=0;right=0;pointerEvents=1;" vertex="1" parent="bDXIlXWXYHLKzXI-y4y_-60">
          <mxGeometry x="474" width="162" height="30" as="geometry">
            <mxRectangle width="162" height="30" as="alternateBounds" />
          </mxGeometry>
        </mxCell>
        <mxCell id="bDXIlXWXYHLKzXI-y4y_-65" value="" style="shape=partialRectangle;html=1;whiteSpace=wrap;connectable=0;strokeColor=inherit;overflow=hidden;fillColor=none;top=0;left=0;bottom=0;right=0;pointerEvents=1;" vertex="1" parent="bDXIlXWXYHLKzXI-y4y_-60">
          <mxGeometry x="636" width="154" height="30" as="geometry">
            <mxRectangle width="154" height="30" as="alternateBounds" />
          </mxGeometry>
        </mxCell>
        <mxCell id="bDXIlXWXYHLKzXI-y4y_-66" value="" style="shape=tableRow;horizontal=0;startSize=0;swimlaneHead=0;swimlaneBody=0;strokeColor=inherit;top=0;left=0;bottom=0;right=0;collapsible=0;dropTarget=0;fillColor=none;points=[[0,0.5],[1,0.5]];portConstraint=eastwest;" vertex="1" parent="bDXIlXWXYHLKzXI-y4y_-41">
          <mxGeometry y="125" width="790" height="32" as="geometry" />
        </mxCell>
        <mxCell id="bDXIlXWXYHLKzXI-y4y_-67" value="FK Column" style="shape=partialRectangle;html=1;whiteSpace=wrap;connectable=0;strokeColor=inherit;overflow=hidden;fillColor=none;top=0;left=0;bottom=0;right=0;pointerEvents=1;fontStyle=1" vertex="1" parent="bDXIlXWXYHLKzXI-y4y_-66">
          <mxGeometry width="158" height="32" as="geometry">
            <mxRectangle width="158" height="32" as="alternateBounds" />
          </mxGeometry>
        </mxCell>
        <mxCell id="bDXIlXWXYHLKzXI-y4y_-68" value="" style="shape=partialRectangle;html=1;whiteSpace=wrap;connectable=0;strokeColor=inherit;overflow=hidden;fillColor=none;top=0;left=0;bottom=0;right=0;pointerEvents=1;" vertex="1" parent="bDXIlXWXYHLKzXI-y4y_-66">
          <mxGeometry x="158" width="158" height="32" as="geometry">
            <mxRectangle width="158" height="32" as="alternateBounds" />
          </mxGeometry>
        </mxCell>
        <mxCell id="bDXIlXWXYHLKzXI-y4y_-69" value="" style="shape=partialRectangle;html=1;whiteSpace=wrap;connectable=0;strokeColor=inherit;overflow=hidden;fillColor=none;top=0;left=0;bottom=0;right=0;pointerEvents=1;" vertex="1" parent="bDXIlXWXYHLKzXI-y4y_-66">
          <mxGeometry x="316" width="158" height="32" as="geometry">
            <mxRectangle width="158" height="32" as="alternateBounds" />
          </mxGeometry>
        </mxCell>
        <mxCell id="bDXIlXWXYHLKzXI-y4y_-70" value="" style="shape=partialRectangle;html=1;whiteSpace=wrap;connectable=0;strokeColor=inherit;overflow=hidden;fillColor=none;top=0;left=0;bottom=0;right=0;pointerEvents=1;" vertex="1" parent="bDXIlXWXYHLKzXI-y4y_-66">
          <mxGeometry x="474" width="162" height="32" as="geometry">
            <mxRectangle width="162" height="32" as="alternateBounds" />
          </mxGeometry>
        </mxCell>
        <mxCell id="bDXIlXWXYHLKzXI-y4y_-71" value="" style="shape=partialRectangle;html=1;whiteSpace=wrap;connectable=0;strokeColor=inherit;overflow=hidden;fillColor=none;top=0;left=0;bottom=0;right=0;pointerEvents=1;" vertex="1" parent="bDXIlXWXYHLKzXI-y4y_-66">
          <mxGeometry x="636" width="154" height="32" as="geometry">
            <mxRectangle width="154" height="32" as="alternateBounds" />
          </mxGeometry>
        </mxCell>
        <mxCell id="bDXIlXWXYHLKzXI-y4y_-72" value="" style="shape=tableRow;horizontal=0;startSize=0;swimlaneHead=0;swimlaneBody=0;strokeColor=inherit;top=0;left=0;bottom=0;right=0;collapsible=0;dropTarget=0;fillColor=none;points=[[0,0.5],[1,0.5]];portConstraint=eastwest;" vertex="1" parent="bDXIlXWXYHLKzXI-y4y_-41">
          <mxGeometry y="157" width="790" height="31" as="geometry" />
        </mxCell>
        <mxCell id="bDXIlXWXYHLKzXI-y4y_-73" value="Datatype" style="shape=partialRectangle;html=1;whiteSpace=wrap;connectable=0;strokeColor=inherit;overflow=hidden;fillColor=none;top=0;left=0;bottom=0;right=0;pointerEvents=1;fontStyle=1" vertex="1" parent="bDXIlXWXYHLKzXI-y4y_-72">
          <mxGeometry width="158" height="31" as="geometry">
            <mxRectangle width="158" height="31" as="alternateBounds" />
          </mxGeometry>
        </mxCell>
        <mxCell id="bDXIlXWXYHLKzXI-y4y_-74" value="INT" style="shape=partialRectangle;html=1;whiteSpace=wrap;connectable=0;strokeColor=inherit;overflow=hidden;fillColor=none;top=0;left=0;bottom=0;right=0;pointerEvents=1;" vertex="1" parent="bDXIlXWXYHLKzXI-y4y_-72">
          <mxGeometry x="158" width="158" height="31" as="geometry">
            <mxRectangle width="158" height="31" as="alternateBounds" />
          </mxGeometry>
        </mxCell>
        <mxCell id="bDXIlXWXYHLKzXI-y4y_-75" value="NVARCHAR" style="shape=partialRectangle;html=1;whiteSpace=wrap;connectable=0;strokeColor=inherit;overflow=hidden;fillColor=none;top=0;left=0;bottom=0;right=0;pointerEvents=1;" vertex="1" parent="bDXIlXWXYHLKzXI-y4y_-72">
          <mxGeometry x="316" width="158" height="31" as="geometry">
            <mxRectangle width="158" height="31" as="alternateBounds" />
          </mxGeometry>
        </mxCell>
        <mxCell id="bDXIlXWXYHLKzXI-y4y_-76" value="NVARCHAR" style="shape=partialRectangle;html=1;whiteSpace=wrap;connectable=0;strokeColor=inherit;overflow=hidden;fillColor=none;top=0;left=0;bottom=0;right=0;pointerEvents=1;" vertex="1" parent="bDXIlXWXYHLKzXI-y4y_-72">
          <mxGeometry x="474" width="162" height="31" as="geometry">
            <mxRectangle width="162" height="31" as="alternateBounds" />
          </mxGeometry>
        </mxCell>
        <mxCell id="bDXIlXWXYHLKzXI-y4y_-77" value="NVARCHAR" style="shape=partialRectangle;html=1;whiteSpace=wrap;connectable=0;strokeColor=inherit;overflow=hidden;fillColor=none;top=0;left=0;bottom=0;right=0;pointerEvents=1;" vertex="1" parent="bDXIlXWXYHLKzXI-y4y_-72">
          <mxGeometry x="636" width="154" height="31" as="geometry">
            <mxRectangle width="154" height="31" as="alternateBounds" />
          </mxGeometry>
        </mxCell>
        <mxCell id="bDXIlXWXYHLKzXI-y4y_-78" value="" style="shape=tableRow;horizontal=0;startSize=0;swimlaneHead=0;swimlaneBody=0;strokeColor=inherit;top=0;left=0;bottom=0;right=0;collapsible=0;dropTarget=0;fillColor=none;points=[[0,0.5],[1,0.5]];portConstraint=eastwest;" vertex="1" parent="bDXIlXWXYHLKzXI-y4y_-41">
          <mxGeometry y="188" width="790" height="32" as="geometry" />
        </mxCell>
        <mxCell id="bDXIlXWXYHLKzXI-y4y_-79" value="Max Length" style="shape=partialRectangle;html=1;whiteSpace=wrap;connectable=0;strokeColor=inherit;overflow=hidden;fillColor=none;top=0;left=0;bottom=0;right=0;pointerEvents=1;fontStyle=1" vertex="1" parent="bDXIlXWXYHLKzXI-y4y_-78">
          <mxGeometry width="158" height="32" as="geometry">
            <mxRectangle width="158" height="32" as="alternateBounds" />
          </mxGeometry>
        </mxCell>
        <mxCell id="bDXIlXWXYHLKzXI-y4y_-80" value="" style="shape=partialRectangle;html=1;whiteSpace=wrap;connectable=0;strokeColor=inherit;overflow=hidden;fillColor=none;top=0;left=0;bottom=0;right=0;pointerEvents=1;" vertex="1" parent="bDXIlXWXYHLKzXI-y4y_-78">
          <mxGeometry x="158" width="158" height="32" as="geometry">
            <mxRectangle width="158" height="32" as="alternateBounds" />
          </mxGeometry>
        </mxCell>
        <mxCell id="bDXIlXWXYHLKzXI-y4y_-81" value="50" style="shape=partialRectangle;html=1;whiteSpace=wrap;connectable=0;strokeColor=inherit;overflow=hidden;fillColor=none;top=0;left=0;bottom=0;right=0;pointerEvents=1;" vertex="1" parent="bDXIlXWXYHLKzXI-y4y_-78">
          <mxGeometry x="316" width="158" height="32" as="geometry">
            <mxRectangle width="158" height="32" as="alternateBounds" />
          </mxGeometry>
        </mxCell>
        <mxCell id="bDXIlXWXYHLKzXI-y4y_-82" value="255" style="shape=partialRectangle;html=1;whiteSpace=wrap;connectable=0;strokeColor=inherit;overflow=hidden;fillColor=none;top=0;left=0;bottom=0;right=0;pointerEvents=1;" vertex="1" parent="bDXIlXWXYHLKzXI-y4y_-78">
          <mxGeometry x="474" width="162" height="32" as="geometry">
            <mxRectangle width="162" height="32" as="alternateBounds" />
          </mxGeometry>
        </mxCell>
        <mxCell id="bDXIlXWXYHLKzXI-y4y_-83" value="20" style="shape=partialRectangle;html=1;whiteSpace=wrap;connectable=0;strokeColor=inherit;overflow=hidden;fillColor=none;top=0;left=0;bottom=0;right=0;pointerEvents=1;" vertex="1" parent="bDXIlXWXYHLKzXI-y4y_-78">
          <mxGeometry x="636" width="154" height="32" as="geometry">
            <mxRectangle width="154" height="32" as="alternateBounds" />
          </mxGeometry>
        </mxCell>
        <mxCell id="bDXIlXWXYHLKzXI-y4y_-84" value="&lt;font style=&quot;font-size: 14px;&quot;&gt;&lt;b&gt;Products&lt;/b&gt;&lt;/font&gt;" style="text;html=1;align=center;verticalAlign=middle;resizable=0;points=[];autosize=1;strokeColor=none;fillColor=none;" vertex="1" parent="1">
          <mxGeometry x="35" y="810" width="80" height="30" as="geometry" />
        </mxCell>
        <mxCell id="bDXIlXWXYHLKzXI-y4y_-85" value="" style="shape=table;startSize=0;container=1;collapsible=0;childLayout=tableLayout;" vertex="1" parent="1">
          <mxGeometry x="40" y="840" width="790" height="250" as="geometry" />
        </mxCell>
        <mxCell id="bDXIlXWXYHLKzXI-y4y_-86" value="" style="shape=tableRow;horizontal=0;startSize=0;swimlaneHead=0;swimlaneBody=0;strokeColor=inherit;top=0;left=0;bottom=0;right=0;collapsible=0;dropTarget=0;fillColor=none;points=[[0,0.5],[1,0.5]];portConstraint=eastwest;" vertex="1" parent="bDXIlXWXYHLKzXI-y4y_-85">
          <mxGeometry width="790" height="36" as="geometry" />
        </mxCell>
        <mxCell id="bDXIlXWXYHLKzXI-y4y_-87" value="Column Name" style="shape=partialRectangle;html=1;whiteSpace=wrap;connectable=0;strokeColor=inherit;overflow=hidden;fillColor=none;top=0;left=0;bottom=0;right=0;pointerEvents=1;fontStyle=1" vertex="1" parent="bDXIlXWXYHLKzXI-y4y_-86">
          <mxGeometry width="99" height="36" as="geometry">
            <mxRectangle width="99" height="36" as="alternateBounds" />
          </mxGeometry>
        </mxCell>
        <mxCell id="bDXIlXWXYHLKzXI-y4y_-88" value="&lt;span style=&quot;border-color: var(--border-color);&quot;&gt;&lt;u style=&quot;border-color: var(--border-color);&quot;&gt;Product_ID&lt;/u&gt;&lt;/span&gt;" style="shape=partialRectangle;html=1;whiteSpace=wrap;connectable=0;strokeColor=inherit;overflow=hidden;fillColor=none;top=0;left=0;bottom=0;right=0;pointerEvents=1;" vertex="1" parent="bDXIlXWXYHLKzXI-y4y_-86">
          <mxGeometry x="99" width="99" height="36" as="geometry">
            <mxRectangle width="99" height="36" as="alternateBounds" />
          </mxGeometry>
        </mxCell>
        <mxCell id="bDXIlXWXYHLKzXI-y4y_-89" value="Supplier_ID*" style="shape=partialRectangle;html=1;whiteSpace=wrap;connectable=0;strokeColor=inherit;overflow=hidden;fillColor=none;top=0;left=0;bottom=0;right=0;pointerEvents=1;" vertex="1" parent="bDXIlXWXYHLKzXI-y4y_-86">
          <mxGeometry x="198" width="98" height="36" as="geometry">
            <mxRectangle width="98" height="36" as="alternateBounds" />
          </mxGeometry>
        </mxCell>
        <mxCell id="bDXIlXWXYHLKzXI-y4y_-90" value="Product_name" style="shape=partialRectangle;html=1;whiteSpace=wrap;connectable=0;strokeColor=inherit;overflow=hidden;fillColor=none;top=0;left=0;bottom=0;right=0;pointerEvents=1;" vertex="1" parent="bDXIlXWXYHLKzXI-y4y_-86">
          <mxGeometry x="296" width="99" height="36" as="geometry">
            <mxRectangle width="99" height="36" as="alternateBounds" />
          </mxGeometry>
        </mxCell>
        <mxCell id="bDXIlXWXYHLKzXI-y4y_-128" value="Description" style="shape=partialRectangle;html=1;whiteSpace=wrap;connectable=0;strokeColor=inherit;overflow=hidden;fillColor=none;top=0;left=0;bottom=0;right=0;pointerEvents=1;" vertex="1" parent="bDXIlXWXYHLKzXI-y4y_-86">
          <mxGeometry x="395" width="99" height="36" as="geometry">
            <mxRectangle width="99" height="36" as="alternateBounds" />
          </mxGeometry>
        </mxCell>
        <mxCell id="bDXIlXWXYHLKzXI-y4y_-91" value="Unit" style="shape=partialRectangle;html=1;whiteSpace=wrap;connectable=0;strokeColor=inherit;overflow=hidden;fillColor=none;top=0;left=0;bottom=0;right=0;pointerEvents=1;" vertex="1" parent="bDXIlXWXYHLKzXI-y4y_-86">
          <mxGeometry x="494" width="99" height="36" as="geometry">
            <mxRectangle width="99" height="36" as="alternateBounds" />
          </mxGeometry>
        </mxCell>
        <mxCell id="bDXIlXWXYHLKzXI-y4y_-135" value="UnitPrice" style="shape=partialRectangle;html=1;whiteSpace=wrap;connectable=0;strokeColor=inherit;overflow=hidden;fillColor=none;top=0;left=0;bottom=0;right=0;pointerEvents=1;" vertex="1" parent="bDXIlXWXYHLKzXI-y4y_-86">
          <mxGeometry x="593" width="98" height="36" as="geometry">
            <mxRectangle width="98" height="36" as="alternateBounds" />
          </mxGeometry>
        </mxCell>
        <mxCell id="bDXIlXWXYHLKzXI-y4y_-142" value="Quantity" style="shape=partialRectangle;html=1;whiteSpace=wrap;connectable=0;strokeColor=inherit;overflow=hidden;fillColor=none;top=0;left=0;bottom=0;right=0;pointerEvents=1;" vertex="1" parent="bDXIlXWXYHLKzXI-y4y_-86">
          <mxGeometry x="691" width="99" height="36" as="geometry">
            <mxRectangle width="99" height="36" as="alternateBounds" />
          </mxGeometry>
        </mxCell>
        <mxCell id="bDXIlXWXYHLKzXI-y4y_-92" value="" style="shape=tableRow;horizontal=0;startSize=0;swimlaneHead=0;swimlaneBody=0;strokeColor=inherit;top=0;left=0;bottom=0;right=0;collapsible=0;dropTarget=0;fillColor=none;points=[[0,0.5],[1,0.5]];portConstraint=eastwest;" vertex="1" parent="bDXIlXWXYHLKzXI-y4y_-85">
          <mxGeometry y="36" width="790" height="35" as="geometry" />
        </mxCell>
        <mxCell id="bDXIlXWXYHLKzXI-y4y_-93" value="Key Type" style="shape=partialRectangle;html=1;whiteSpace=wrap;connectable=0;strokeColor=inherit;overflow=hidden;fillColor=none;top=0;left=0;bottom=0;right=0;pointerEvents=1;fontStyle=1" vertex="1" parent="bDXIlXWXYHLKzXI-y4y_-92">
          <mxGeometry width="99" height="35" as="geometry">
            <mxRectangle width="99" height="35" as="alternateBounds" />
          </mxGeometry>
        </mxCell>
        <mxCell id="bDXIlXWXYHLKzXI-y4y_-94" value="PK" style="shape=partialRectangle;html=1;whiteSpace=wrap;connectable=0;strokeColor=inherit;overflow=hidden;fillColor=none;top=0;left=0;bottom=0;right=0;pointerEvents=1;" vertex="1" parent="bDXIlXWXYHLKzXI-y4y_-92">
          <mxGeometry x="99" width="99" height="35" as="geometry">
            <mxRectangle width="99" height="35" as="alternateBounds" />
          </mxGeometry>
        </mxCell>
        <mxCell id="bDXIlXWXYHLKzXI-y4y_-95" value="FK" style="shape=partialRectangle;html=1;whiteSpace=wrap;connectable=0;strokeColor=inherit;overflow=hidden;fillColor=none;top=0;left=0;bottom=0;right=0;pointerEvents=1;" vertex="1" parent="bDXIlXWXYHLKzXI-y4y_-92">
          <mxGeometry x="198" width="98" height="35" as="geometry">
            <mxRectangle width="98" height="35" as="alternateBounds" />
          </mxGeometry>
        </mxCell>
        <mxCell id="bDXIlXWXYHLKzXI-y4y_-96" value="" style="shape=partialRectangle;html=1;whiteSpace=wrap;connectable=0;strokeColor=inherit;overflow=hidden;fillColor=none;top=0;left=0;bottom=0;right=0;pointerEvents=1;" vertex="1" parent="bDXIlXWXYHLKzXI-y4y_-92">
          <mxGeometry x="296" width="99" height="35" as="geometry">
            <mxRectangle width="99" height="35" as="alternateBounds" />
          </mxGeometry>
        </mxCell>
        <mxCell id="bDXIlXWXYHLKzXI-y4y_-129" value="" style="shape=partialRectangle;html=1;whiteSpace=wrap;connectable=0;strokeColor=inherit;overflow=hidden;fillColor=none;top=0;left=0;bottom=0;right=0;pointerEvents=1;" vertex="1" parent="bDXIlXWXYHLKzXI-y4y_-92">
          <mxGeometry x="395" width="99" height="35" as="geometry">
            <mxRectangle width="99" height="35" as="alternateBounds" />
          </mxGeometry>
        </mxCell>
        <mxCell id="bDXIlXWXYHLKzXI-y4y_-97" value="" style="shape=partialRectangle;html=1;whiteSpace=wrap;connectable=0;strokeColor=inherit;overflow=hidden;fillColor=none;top=0;left=0;bottom=0;right=0;pointerEvents=1;" vertex="1" parent="bDXIlXWXYHLKzXI-y4y_-92">
          <mxGeometry x="494" width="99" height="35" as="geometry">
            <mxRectangle width="99" height="35" as="alternateBounds" />
          </mxGeometry>
        </mxCell>
        <mxCell id="bDXIlXWXYHLKzXI-y4y_-136" style="shape=partialRectangle;html=1;whiteSpace=wrap;connectable=0;strokeColor=inherit;overflow=hidden;fillColor=none;top=0;left=0;bottom=0;right=0;pointerEvents=1;" vertex="1" parent="bDXIlXWXYHLKzXI-y4y_-92">
          <mxGeometry x="593" width="98" height="35" as="geometry">
            <mxRectangle width="98" height="35" as="alternateBounds" />
          </mxGeometry>
        </mxCell>
        <mxCell id="bDXIlXWXYHLKzXI-y4y_-143" value="" style="shape=partialRectangle;html=1;whiteSpace=wrap;connectable=0;strokeColor=inherit;overflow=hidden;fillColor=none;top=0;left=0;bottom=0;right=0;pointerEvents=1;" vertex="1" parent="bDXIlXWXYHLKzXI-y4y_-92">
          <mxGeometry x="691" width="99" height="35" as="geometry">
            <mxRectangle width="99" height="35" as="alternateBounds" />
          </mxGeometry>
        </mxCell>
        <mxCell id="bDXIlXWXYHLKzXI-y4y_-98" value="" style="shape=tableRow;horizontal=0;startSize=0;swimlaneHead=0;swimlaneBody=0;strokeColor=inherit;top=0;left=0;bottom=0;right=0;collapsible=0;dropTarget=0;fillColor=none;points=[[0,0.5],[1,0.5]];portConstraint=eastwest;" vertex="1" parent="bDXIlXWXYHLKzXI-y4y_-85">
          <mxGeometry y="71" width="790" height="36" as="geometry" />
        </mxCell>
        <mxCell id="bDXIlXWXYHLKzXI-y4y_-99" value="Null/Unique" style="shape=partialRectangle;html=1;whiteSpace=wrap;connectable=0;strokeColor=inherit;overflow=hidden;fillColor=none;top=0;left=0;bottom=0;right=0;pointerEvents=1;fontStyle=1" vertex="1" parent="bDXIlXWXYHLKzXI-y4y_-98">
          <mxGeometry width="99" height="36" as="geometry">
            <mxRectangle width="99" height="36" as="alternateBounds" />
          </mxGeometry>
        </mxCell>
        <mxCell id="bDXIlXWXYHLKzXI-y4y_-100" value="NN, U" style="shape=partialRectangle;html=1;whiteSpace=wrap;connectable=0;strokeColor=inherit;overflow=hidden;fillColor=none;top=0;left=0;bottom=0;right=0;pointerEvents=1;" vertex="1" parent="bDXIlXWXYHLKzXI-y4y_-98">
          <mxGeometry x="99" width="99" height="36" as="geometry">
            <mxRectangle width="99" height="36" as="alternateBounds" />
          </mxGeometry>
        </mxCell>
        <mxCell id="bDXIlXWXYHLKzXI-y4y_-101" value="NN" style="shape=partialRectangle;html=1;whiteSpace=wrap;connectable=0;strokeColor=inherit;overflow=hidden;fillColor=none;top=0;left=0;bottom=0;right=0;pointerEvents=1;" vertex="1" parent="bDXIlXWXYHLKzXI-y4y_-98">
          <mxGeometry x="198" width="98" height="36" as="geometry">
            <mxRectangle width="98" height="36" as="alternateBounds" />
          </mxGeometry>
        </mxCell>
        <mxCell id="bDXIlXWXYHLKzXI-y4y_-102" value="NN" style="shape=partialRectangle;html=1;whiteSpace=wrap;connectable=0;strokeColor=inherit;overflow=hidden;fillColor=none;top=0;left=0;bottom=0;right=0;pointerEvents=1;" vertex="1" parent="bDXIlXWXYHLKzXI-y4y_-98">
          <mxGeometry x="296" width="99" height="36" as="geometry">
            <mxRectangle width="99" height="36" as="alternateBounds" />
          </mxGeometry>
        </mxCell>
        <mxCell id="bDXIlXWXYHLKzXI-y4y_-130" value="NN" style="shape=partialRectangle;html=1;whiteSpace=wrap;connectable=0;strokeColor=inherit;overflow=hidden;fillColor=none;top=0;left=0;bottom=0;right=0;pointerEvents=1;" vertex="1" parent="bDXIlXWXYHLKzXI-y4y_-98">
          <mxGeometry x="395" width="99" height="36" as="geometry">
            <mxRectangle width="99" height="36" as="alternateBounds" />
          </mxGeometry>
        </mxCell>
        <mxCell id="bDXIlXWXYHLKzXI-y4y_-103" value="NN" style="shape=partialRectangle;html=1;whiteSpace=wrap;connectable=0;strokeColor=inherit;overflow=hidden;fillColor=none;top=0;left=0;bottom=0;right=0;pointerEvents=1;" vertex="1" parent="bDXIlXWXYHLKzXI-y4y_-98">
          <mxGeometry x="494" width="99" height="36" as="geometry">
            <mxRectangle width="99" height="36" as="alternateBounds" />
          </mxGeometry>
        </mxCell>
        <mxCell id="bDXIlXWXYHLKzXI-y4y_-137" value="NN" style="shape=partialRectangle;html=1;whiteSpace=wrap;connectable=0;strokeColor=inherit;overflow=hidden;fillColor=none;top=0;left=0;bottom=0;right=0;pointerEvents=1;" vertex="1" parent="bDXIlXWXYHLKzXI-y4y_-98">
          <mxGeometry x="593" width="98" height="36" as="geometry">
            <mxRectangle width="98" height="36" as="alternateBounds" />
          </mxGeometry>
        </mxCell>
        <mxCell id="bDXIlXWXYHLKzXI-y4y_-144" value="NN" style="shape=partialRectangle;html=1;whiteSpace=wrap;connectable=0;strokeColor=inherit;overflow=hidden;fillColor=none;top=0;left=0;bottom=0;right=0;pointerEvents=1;" vertex="1" parent="bDXIlXWXYHLKzXI-y4y_-98">
          <mxGeometry x="691" width="99" height="36" as="geometry">
            <mxRectangle width="99" height="36" as="alternateBounds" />
          </mxGeometry>
        </mxCell>
        <mxCell id="bDXIlXWXYHLKzXI-y4y_-104" value="" style="shape=tableRow;horizontal=0;startSize=0;swimlaneHead=0;swimlaneBody=0;strokeColor=inherit;top=0;left=0;bottom=0;right=0;collapsible=0;dropTarget=0;fillColor=none;points=[[0,0.5],[1,0.5]];portConstraint=eastwest;" vertex="1" parent="bDXIlXWXYHLKzXI-y4y_-85">
          <mxGeometry y="107" width="790" height="36" as="geometry" />
        </mxCell>
        <mxCell id="bDXIlXWXYHLKzXI-y4y_-105" value="FK Table" style="shape=partialRectangle;html=1;whiteSpace=wrap;connectable=0;strokeColor=inherit;overflow=hidden;fillColor=none;top=0;left=0;bottom=0;right=0;pointerEvents=1;fontStyle=1" vertex="1" parent="bDXIlXWXYHLKzXI-y4y_-104">
          <mxGeometry width="99" height="36" as="geometry">
            <mxRectangle width="99" height="36" as="alternateBounds" />
          </mxGeometry>
        </mxCell>
        <mxCell id="bDXIlXWXYHLKzXI-y4y_-106" value="" style="shape=partialRectangle;html=1;whiteSpace=wrap;connectable=0;strokeColor=inherit;overflow=hidden;fillColor=none;top=0;left=0;bottom=0;right=0;pointerEvents=1;" vertex="1" parent="bDXIlXWXYHLKzXI-y4y_-104">
          <mxGeometry x="99" width="99" height="36" as="geometry">
            <mxRectangle width="99" height="36" as="alternateBounds" />
          </mxGeometry>
        </mxCell>
        <mxCell id="bDXIlXWXYHLKzXI-y4y_-107" value="" style="shape=partialRectangle;html=1;whiteSpace=wrap;connectable=0;strokeColor=inherit;overflow=hidden;fillColor=none;top=0;left=0;bottom=0;right=0;pointerEvents=1;" vertex="1" parent="bDXIlXWXYHLKzXI-y4y_-104">
          <mxGeometry x="198" width="98" height="36" as="geometry">
            <mxRectangle width="98" height="36" as="alternateBounds" />
          </mxGeometry>
        </mxCell>
        <mxCell id="bDXIlXWXYHLKzXI-y4y_-108" value="" style="shape=partialRectangle;html=1;whiteSpace=wrap;connectable=0;strokeColor=inherit;overflow=hidden;fillColor=none;top=0;left=0;bottom=0;right=0;pointerEvents=1;" vertex="1" parent="bDXIlXWXYHLKzXI-y4y_-104">
          <mxGeometry x="296" width="99" height="36" as="geometry">
            <mxRectangle width="99" height="36" as="alternateBounds" />
          </mxGeometry>
        </mxCell>
        <mxCell id="bDXIlXWXYHLKzXI-y4y_-131" style="shape=partialRectangle;html=1;whiteSpace=wrap;connectable=0;strokeColor=inherit;overflow=hidden;fillColor=none;top=0;left=0;bottom=0;right=0;pointerEvents=1;" vertex="1" parent="bDXIlXWXYHLKzXI-y4y_-104">
          <mxGeometry x="395" width="99" height="36" as="geometry">
            <mxRectangle width="99" height="36" as="alternateBounds" />
          </mxGeometry>
        </mxCell>
        <mxCell id="bDXIlXWXYHLKzXI-y4y_-109" value="" style="shape=partialRectangle;html=1;whiteSpace=wrap;connectable=0;strokeColor=inherit;overflow=hidden;fillColor=none;top=0;left=0;bottom=0;right=0;pointerEvents=1;" vertex="1" parent="bDXIlXWXYHLKzXI-y4y_-104">
          <mxGeometry x="494" width="99" height="36" as="geometry">
            <mxRectangle width="99" height="36" as="alternateBounds" />
          </mxGeometry>
        </mxCell>
        <mxCell id="bDXIlXWXYHLKzXI-y4y_-138" style="shape=partialRectangle;html=1;whiteSpace=wrap;connectable=0;strokeColor=inherit;overflow=hidden;fillColor=none;top=0;left=0;bottom=0;right=0;pointerEvents=1;" vertex="1" parent="bDXIlXWXYHLKzXI-y4y_-104">
          <mxGeometry x="593" width="98" height="36" as="geometry">
            <mxRectangle width="98" height="36" as="alternateBounds" />
          </mxGeometry>
        </mxCell>
        <mxCell id="bDXIlXWXYHLKzXI-y4y_-145" style="shape=partialRectangle;html=1;whiteSpace=wrap;connectable=0;strokeColor=inherit;overflow=hidden;fillColor=none;top=0;left=0;bottom=0;right=0;pointerEvents=1;" vertex="1" parent="bDXIlXWXYHLKzXI-y4y_-104">
          <mxGeometry x="691" width="99" height="36" as="geometry">
            <mxRectangle width="99" height="36" as="alternateBounds" />
          </mxGeometry>
        </mxCell>
        <mxCell id="bDXIlXWXYHLKzXI-y4y_-110" value="" style="shape=tableRow;horizontal=0;startSize=0;swimlaneHead=0;swimlaneBody=0;strokeColor=inherit;top=0;left=0;bottom=0;right=0;collapsible=0;dropTarget=0;fillColor=none;points=[[0,0.5],[1,0.5]];portConstraint=eastwest;" vertex="1" parent="bDXIlXWXYHLKzXI-y4y_-85">
          <mxGeometry y="143" width="790" height="36" as="geometry" />
        </mxCell>
        <mxCell id="bDXIlXWXYHLKzXI-y4y_-111" value="FK Column" style="shape=partialRectangle;html=1;whiteSpace=wrap;connectable=0;strokeColor=inherit;overflow=hidden;fillColor=none;top=0;left=0;bottom=0;right=0;pointerEvents=1;fontStyle=1" vertex="1" parent="bDXIlXWXYHLKzXI-y4y_-110">
          <mxGeometry width="99" height="36" as="geometry">
            <mxRectangle width="99" height="36" as="alternateBounds" />
          </mxGeometry>
        </mxCell>
        <mxCell id="bDXIlXWXYHLKzXI-y4y_-112" value="" style="shape=partialRectangle;html=1;whiteSpace=wrap;connectable=0;strokeColor=inherit;overflow=hidden;fillColor=none;top=0;left=0;bottom=0;right=0;pointerEvents=1;" vertex="1" parent="bDXIlXWXYHLKzXI-y4y_-110">
          <mxGeometry x="99" width="99" height="36" as="geometry">
            <mxRectangle width="99" height="36" as="alternateBounds" />
          </mxGeometry>
        </mxCell>
        <mxCell id="bDXIlXWXYHLKzXI-y4y_-113" value="" style="shape=partialRectangle;html=1;whiteSpace=wrap;connectable=0;strokeColor=inherit;overflow=hidden;fillColor=none;top=0;left=0;bottom=0;right=0;pointerEvents=1;" vertex="1" parent="bDXIlXWXYHLKzXI-y4y_-110">
          <mxGeometry x="198" width="98" height="36" as="geometry">
            <mxRectangle width="98" height="36" as="alternateBounds" />
          </mxGeometry>
        </mxCell>
        <mxCell id="bDXIlXWXYHLKzXI-y4y_-114" value="" style="shape=partialRectangle;html=1;whiteSpace=wrap;connectable=0;strokeColor=inherit;overflow=hidden;fillColor=none;top=0;left=0;bottom=0;right=0;pointerEvents=1;" vertex="1" parent="bDXIlXWXYHLKzXI-y4y_-110">
          <mxGeometry x="296" width="99" height="36" as="geometry">
            <mxRectangle width="99" height="36" as="alternateBounds" />
          </mxGeometry>
        </mxCell>
        <mxCell id="bDXIlXWXYHLKzXI-y4y_-132" style="shape=partialRectangle;html=1;whiteSpace=wrap;connectable=0;strokeColor=inherit;overflow=hidden;fillColor=none;top=0;left=0;bottom=0;right=0;pointerEvents=1;" vertex="1" parent="bDXIlXWXYHLKzXI-y4y_-110">
          <mxGeometry x="395" width="99" height="36" as="geometry">
            <mxRectangle width="99" height="36" as="alternateBounds" />
          </mxGeometry>
        </mxCell>
        <mxCell id="bDXIlXWXYHLKzXI-y4y_-115" value="" style="shape=partialRectangle;html=1;whiteSpace=wrap;connectable=0;strokeColor=inherit;overflow=hidden;fillColor=none;top=0;left=0;bottom=0;right=0;pointerEvents=1;" vertex="1" parent="bDXIlXWXYHLKzXI-y4y_-110">
          <mxGeometry x="494" width="99" height="36" as="geometry">
            <mxRectangle width="99" height="36" as="alternateBounds" />
          </mxGeometry>
        </mxCell>
        <mxCell id="bDXIlXWXYHLKzXI-y4y_-139" style="shape=partialRectangle;html=1;whiteSpace=wrap;connectable=0;strokeColor=inherit;overflow=hidden;fillColor=none;top=0;left=0;bottom=0;right=0;pointerEvents=1;" vertex="1" parent="bDXIlXWXYHLKzXI-y4y_-110">
          <mxGeometry x="593" width="98" height="36" as="geometry">
            <mxRectangle width="98" height="36" as="alternateBounds" />
          </mxGeometry>
        </mxCell>
        <mxCell id="bDXIlXWXYHLKzXI-y4y_-146" style="shape=partialRectangle;html=1;whiteSpace=wrap;connectable=0;strokeColor=inherit;overflow=hidden;fillColor=none;top=0;left=0;bottom=0;right=0;pointerEvents=1;" vertex="1" parent="bDXIlXWXYHLKzXI-y4y_-110">
          <mxGeometry x="691" width="99" height="36" as="geometry">
            <mxRectangle width="99" height="36" as="alternateBounds" />
          </mxGeometry>
        </mxCell>
        <mxCell id="bDXIlXWXYHLKzXI-y4y_-116" value="" style="shape=tableRow;horizontal=0;startSize=0;swimlaneHead=0;swimlaneBody=0;strokeColor=inherit;top=0;left=0;bottom=0;right=0;collapsible=0;dropTarget=0;fillColor=none;points=[[0,0.5],[1,0.5]];portConstraint=eastwest;" vertex="1" parent="bDXIlXWXYHLKzXI-y4y_-85">
          <mxGeometry y="179" width="790" height="35" as="geometry" />
        </mxCell>
        <mxCell id="bDXIlXWXYHLKzXI-y4y_-117" value="Datatype" style="shape=partialRectangle;html=1;whiteSpace=wrap;connectable=0;strokeColor=inherit;overflow=hidden;fillColor=none;top=0;left=0;bottom=0;right=0;pointerEvents=1;fontStyle=1" vertex="1" parent="bDXIlXWXYHLKzXI-y4y_-116">
          <mxGeometry width="99" height="35" as="geometry">
            <mxRectangle width="99" height="35" as="alternateBounds" />
          </mxGeometry>
        </mxCell>
        <mxCell id="bDXIlXWXYHLKzXI-y4y_-118" value="INT" style="shape=partialRectangle;html=1;whiteSpace=wrap;connectable=0;strokeColor=inherit;overflow=hidden;fillColor=none;top=0;left=0;bottom=0;right=0;pointerEvents=1;" vertex="1" parent="bDXIlXWXYHLKzXI-y4y_-116">
          <mxGeometry x="99" width="99" height="35" as="geometry">
            <mxRectangle width="99" height="35" as="alternateBounds" />
          </mxGeometry>
        </mxCell>
        <mxCell id="bDXIlXWXYHLKzXI-y4y_-119" value="INT" style="shape=partialRectangle;html=1;whiteSpace=wrap;connectable=0;strokeColor=inherit;overflow=hidden;fillColor=none;top=0;left=0;bottom=0;right=0;pointerEvents=1;" vertex="1" parent="bDXIlXWXYHLKzXI-y4y_-116">
          <mxGeometry x="198" width="98" height="35" as="geometry">
            <mxRectangle width="98" height="35" as="alternateBounds" />
          </mxGeometry>
        </mxCell>
        <mxCell id="bDXIlXWXYHLKzXI-y4y_-120" value="NVARCHAR" style="shape=partialRectangle;html=1;whiteSpace=wrap;connectable=0;strokeColor=inherit;overflow=hidden;fillColor=none;top=0;left=0;bottom=0;right=0;pointerEvents=1;" vertex="1" parent="bDXIlXWXYHLKzXI-y4y_-116">
          <mxGeometry x="296" width="99" height="35" as="geometry">
            <mxRectangle width="99" height="35" as="alternateBounds" />
          </mxGeometry>
        </mxCell>
        <mxCell id="bDXIlXWXYHLKzXI-y4y_-133" value="NVARCHAR" style="shape=partialRectangle;html=1;whiteSpace=wrap;connectable=0;strokeColor=inherit;overflow=hidden;fillColor=none;top=0;left=0;bottom=0;right=0;pointerEvents=1;" vertex="1" parent="bDXIlXWXYHLKzXI-y4y_-116">
          <mxGeometry x="395" width="99" height="35" as="geometry">
            <mxRectangle width="99" height="35" as="alternateBounds" />
          </mxGeometry>
        </mxCell>
        <mxCell id="bDXIlXWXYHLKzXI-y4y_-121" value="NVARCHAR" style="shape=partialRectangle;html=1;whiteSpace=wrap;connectable=0;strokeColor=inherit;overflow=hidden;fillColor=none;top=0;left=0;bottom=0;right=0;pointerEvents=1;" vertex="1" parent="bDXIlXWXYHLKzXI-y4y_-116">
          <mxGeometry x="494" width="99" height="35" as="geometry">
            <mxRectangle width="99" height="35" as="alternateBounds" />
          </mxGeometry>
        </mxCell>
        <mxCell id="bDXIlXWXYHLKzXI-y4y_-140" value="MONEY" style="shape=partialRectangle;html=1;whiteSpace=wrap;connectable=0;strokeColor=inherit;overflow=hidden;fillColor=none;top=0;left=0;bottom=0;right=0;pointerEvents=1;" vertex="1" parent="bDXIlXWXYHLKzXI-y4y_-116">
          <mxGeometry x="593" width="98" height="35" as="geometry">
            <mxRectangle width="98" height="35" as="alternateBounds" />
          </mxGeometry>
        </mxCell>
        <mxCell id="bDXIlXWXYHLKzXI-y4y_-147" value="INT" style="shape=partialRectangle;html=1;whiteSpace=wrap;connectable=0;strokeColor=inherit;overflow=hidden;fillColor=none;top=0;left=0;bottom=0;right=0;pointerEvents=1;" vertex="1" parent="bDXIlXWXYHLKzXI-y4y_-116">
          <mxGeometry x="691" width="99" height="35" as="geometry">
            <mxRectangle width="99" height="35" as="alternateBounds" />
          </mxGeometry>
        </mxCell>
        <mxCell id="bDXIlXWXYHLKzXI-y4y_-122" value="" style="shape=tableRow;horizontal=0;startSize=0;swimlaneHead=0;swimlaneBody=0;strokeColor=inherit;top=0;left=0;bottom=0;right=0;collapsible=0;dropTarget=0;fillColor=none;points=[[0,0.5],[1,0.5]];portConstraint=eastwest;" vertex="1" parent="bDXIlXWXYHLKzXI-y4y_-85">
          <mxGeometry y="214" width="790" height="36" as="geometry" />
        </mxCell>
        <mxCell id="bDXIlXWXYHLKzXI-y4y_-123" value="Max Length" style="shape=partialRectangle;html=1;whiteSpace=wrap;connectable=0;strokeColor=inherit;overflow=hidden;fillColor=none;top=0;left=0;bottom=0;right=0;pointerEvents=1;fontStyle=1" vertex="1" parent="bDXIlXWXYHLKzXI-y4y_-122">
          <mxGeometry width="99" height="36" as="geometry">
            <mxRectangle width="99" height="36" as="alternateBounds" />
          </mxGeometry>
        </mxCell>
        <mxCell id="bDXIlXWXYHLKzXI-y4y_-124" value="" style="shape=partialRectangle;html=1;whiteSpace=wrap;connectable=0;strokeColor=inherit;overflow=hidden;fillColor=none;top=0;left=0;bottom=0;right=0;pointerEvents=1;" vertex="1" parent="bDXIlXWXYHLKzXI-y4y_-122">
          <mxGeometry x="99" width="99" height="36" as="geometry">
            <mxRectangle width="99" height="36" as="alternateBounds" />
          </mxGeometry>
        </mxCell>
        <mxCell id="bDXIlXWXYHLKzXI-y4y_-125" value="" style="shape=partialRectangle;html=1;whiteSpace=wrap;connectable=0;strokeColor=inherit;overflow=hidden;fillColor=none;top=0;left=0;bottom=0;right=0;pointerEvents=1;" vertex="1" parent="bDXIlXWXYHLKzXI-y4y_-122">
          <mxGeometry x="198" width="98" height="36" as="geometry">
            <mxRectangle width="98" height="36" as="alternateBounds" />
          </mxGeometry>
        </mxCell>
        <mxCell id="bDXIlXWXYHLKzXI-y4y_-126" value="200" style="shape=partialRectangle;html=1;whiteSpace=wrap;connectable=0;strokeColor=inherit;overflow=hidden;fillColor=none;top=0;left=0;bottom=0;right=0;pointerEvents=1;" vertex="1" parent="bDXIlXWXYHLKzXI-y4y_-122">
          <mxGeometry x="296" width="99" height="36" as="geometry">
            <mxRectangle width="99" height="36" as="alternateBounds" />
          </mxGeometry>
        </mxCell>
        <mxCell id="bDXIlXWXYHLKzXI-y4y_-134" value="500" style="shape=partialRectangle;html=1;whiteSpace=wrap;connectable=0;strokeColor=inherit;overflow=hidden;fillColor=none;top=0;left=0;bottom=0;right=0;pointerEvents=1;" vertex="1" parent="bDXIlXWXYHLKzXI-y4y_-122">
          <mxGeometry x="395" width="99" height="36" as="geometry">
            <mxRectangle width="99" height="36" as="alternateBounds" />
          </mxGeometry>
        </mxCell>
        <mxCell id="bDXIlXWXYHLKzXI-y4y_-127" value="20" style="shape=partialRectangle;html=1;whiteSpace=wrap;connectable=0;strokeColor=inherit;overflow=hidden;fillColor=none;top=0;left=0;bottom=0;right=0;pointerEvents=1;" vertex="1" parent="bDXIlXWXYHLKzXI-y4y_-122">
          <mxGeometry x="494" width="99" height="36" as="geometry">
            <mxRectangle width="99" height="36" as="alternateBounds" />
          </mxGeometry>
        </mxCell>
        <mxCell id="bDXIlXWXYHLKzXI-y4y_-141" style="shape=partialRectangle;html=1;whiteSpace=wrap;connectable=0;strokeColor=inherit;overflow=hidden;fillColor=none;top=0;left=0;bottom=0;right=0;pointerEvents=1;" vertex="1" parent="bDXIlXWXYHLKzXI-y4y_-122">
          <mxGeometry x="593" width="98" height="36" as="geometry">
            <mxRectangle width="98" height="36" as="alternateBounds" />
          </mxGeometry>
        </mxCell>
        <mxCell id="bDXIlXWXYHLKzXI-y4y_-148" style="shape=partialRectangle;html=1;whiteSpace=wrap;connectable=0;strokeColor=inherit;overflow=hidden;fillColor=none;top=0;left=0;bottom=0;right=0;pointerEvents=1;" vertex="1" parent="bDXIlXWXYHLKzXI-y4y_-122">
          <mxGeometry x="691" width="99" height="36" as="geometry">
            <mxRectangle width="99" height="36" as="alternateBounds" />
          </mxGeometry>
        </mxCell>
      </root>
    </mxGraphModel>
  </diagram>
</mxfile>
